<svg xmlns="http://www.w3.org/2000/svg" viewBox="0 0 96 96" height="96" width="96">
  <rect fill="#0f172a" height="96" width="96"></rect>
  
  
  <g stroke-width="0.8" stroke="#38bdf8" opacity="0.15">
    <line y2="12" x2="96" y1="12" x1="0"></line>
    <line y2="24" x2="96" y1="24" x1="0"></line>
    <line y2="36" x2="96" y1="36" x1="0"></line>
    <line y2="48" x2="96" y1="48" x1="0"></line>
    <line y2="60" x2="96" y1="60" x1="0"></line>
    <line y2="72" x2="96" y1="72" x1="0"></line>
  </g>

  
  <defs>
    <linearGradient y2="100%" x2="0%" y1="0%" x1="0%" id="beam">
      <stop stop-opacity="0" stop-color="#38bdf8" offset="0%"></stop>
      <stop stop-opacity="0.7" stop-color="#a78bfa" offset="45%"></stop>
      <stop stop-opacity="0.9" stop-color="#a78bfa" offset="55%"></stop>
      <stop stop-opacity="0" stop-color="#38bdf8" offset="100%"></stop>
    </linearGradient>
  </defs>
  <rect opacity="0.85" fill="url(#beam)" height="20" width="96" y="0" x="0">
    
  </rect>

  
  <g text-anchor="middle" font-size="18" fill="#e2e8f0" font-weight="700" font-family="system-ui,sans-serif">
    <text y="34" x="48">SCAN</text>
    <text letter-spacing="1" font-size="24" y="56" x="48">TEXT</text>
  </g>

  
  <g text-anchor="middle" font-size="24" font-weight="800" font-family="system-ui,sans-serif">
    <text fill="#c084fc" y="56" x="36">
      T
      
    </text>
    <text fill="#a5b4fc" y="56" x="48">
      E
      
    </text>
    <text fill="#c084fc" y="56" x="61">
      X
      
    </text>
    <text fill="#a5b4fc" y="56" x="73">
      T
      
    </text>
  </g>

  
  <g stroke-linecap="round" fill="none" stroke-width="2.5" stroke="#60a5fa">
    <path d="M14,14 14,32 M14,14 32,14"></path>
    <path d="M82,14 82,32 M82,14 64,14"></path>
    <path d="M14,82 14,64 M14,82 32,82"></path>
    <path d="M82,82 82,64 M82,82 64,82"></path>
  </g>

  
  <circle fill="#c084fc" r="3.5" cy="48" cx="48">
    
    
  </circle>
</svg>
